<svg width="11" height="11" viewBox="0 0 11 11" fill="none" xmlns="http://www.w3.org/2000/svg">
<path d="M10.9891 5.18329V11H5.49739C4.42442 10.9995 3.37504 10.6852 2.47849 10.0957C1.58194 9.50625 0.877382 8.66743 0.451597 7.68257C0.025812 6.6977 -0.102603 5.6098 0.082168 4.55287C0.266939 3.49593 0.756827 2.51612 1.49149 1.73412C2.22616 0.952126 3.17351 0.402092 4.21687 0.151772C5.26022 -0.0985487 6.35402 -0.038223 7.36352 0.325318C8.37302 0.68886 9.25414 1.33974 9.89835 2.19779C10.5426 3.05583 10.9217 4.08357 10.9891 5.15442V5.18329ZM5.94747 3.20833H3.19747V4.125H5.94747V3.20833ZM7.78081 5.04167H3.19747V5.95834H7.78081V5.04167ZM7.78081 6.875H3.19747V7.79167H7.78081V6.875Z" fill="#EC1B90"/>
</svg>
