<svg width="7" height="8" viewBox="0 0 7 8" fill="none" xmlns="http://www.w3.org/2000/svg">
<path d="M3.85 1.33333C3.85 1.42174 3.88687 1.50652 3.95251 1.56904C4.01815 1.63155 4.10717 1.66667 4.2 1.66667H5.5881C5.56233 1.45023 5.4626 1.24785 5.30425 1.09067L4.50485 0.304333C4.32997 0.135516 4.09798 0.0311248 3.85 0.00966667V1.33333ZM3.15 1.33333V0H1.75C1.28604 0.000529286 0.841245 0.176294 0.513177 0.48874C0.185109 0.801186 0.00055575 1.2248 0 1.66667V5C0.00055575 5.44186 0.185109 5.86548 0.513177 6.17793C0.841245 6.49037 1.28604 6.66614 1.75 6.66667H3.85C4.31396 6.66614 4.75876 6.49037 5.08682 6.17793C5.41489 5.86548 5.59944 5.44186 5.6 5V2.33333H4.2C3.92152 2.33333 3.65445 2.22798 3.45754 2.04044C3.26062 1.8529 3.15 1.59855 3.15 1.33333ZM5.25 8H2.1C2.00717 8 1.91815 7.96488 1.85251 7.90237C1.78687 7.83986 1.75 7.75507 1.75 7.66667C1.75 7.57826 1.78687 7.49348 1.85251 7.43096C1.91815 7.36845 2.00717 7.33333 2.1 7.33333H5.25C5.52848 7.33333 5.79555 7.22798 5.99246 7.04044C6.18938 6.8529 6.3 6.59855 6.3 6.33333V2.66667C6.3 2.57826 6.33687 2.49348 6.40251 2.43096C6.46815 2.36845 6.55717 2.33333 6.65 2.33333C6.74283 2.33333 6.83185 2.36845 6.89749 2.43096C6.96313 2.49348 7 2.57826 7 2.66667V6.33333C6.99944 6.7752 6.81489 7.19881 6.48682 7.51126C6.15875 7.82371 5.71396 7.99947 5.25 8Z" fill="#5A5A5B"/>
</svg>
