<svg width="7" height="6" viewBox="0 0 7 6" fill="none" xmlns="http://www.w3.org/2000/svg">
<path d="M5.02882 0C4.72988 0.00280459 4.43577 0.0734703 4.17006 0.206336C3.90435 0.339201 3.67442 0.530572 3.49869 0.765118C3.32296 0.530572 3.09303 0.339201 2.82732 0.206336C2.56161 0.0734703 2.2675 0.00280459 1.96856 0C1.42697 0.020974 0.915983 0.24906 0.547323 0.634384C0.178663 1.01971 -0.0176715 1.53092 0.00125126 2.05624C0.00125126 3.34283 1.3635 4.72016 2.50775 5.64921C2.7856 5.87578 3.13698 6 3.5 6C3.86302 6 4.2144 5.87578 4.49225 5.64921C5.63533 4.72016 6.99875 3.34283 6.99875 2.05624C7.01766 1.5305 6.82097 1.01891 6.45175 0.633516C6.08253 0.248119 5.57087 0.0203188 5.02882 0V0ZM3.92917 4.99941C3.80863 5.09783 3.65612 5.1518 3.49854 5.1518C3.34097 5.1518 3.18846 5.09783 3.06792 4.99941C1.67478 3.86657 0.875611 2.79394 0.875611 2.05624C0.857028 1.75585 0.96138 1.46047 1.16601 1.23425C1.37064 1.00802 1.65903 0.869201 1.96856 0.847932C2.27809 0.869201 2.56648 1.00802 2.77111 1.23425C2.97574 1.46047 3.08009 1.75585 3.06151 2.05624C3.06151 2.16868 3.10757 2.27652 3.18956 2.35602C3.27154 2.43553 3.38274 2.4802 3.49869 2.4802C3.61464 2.4802 3.72584 2.43553 3.80782 2.35602C3.88981 2.27652 3.93587 2.16868 3.93587 2.05624C3.91729 1.75585 4.02164 1.46047 4.22627 1.23425C4.4309 1.00802 4.71929 0.869201 5.02882 0.847932C5.33835 0.869201 5.62674 1.00802 5.83137 1.23425C6.036 1.46047 6.14035 1.75585 6.12177 2.05624C6.12177 2.79394 5.3226 3.86657 3.92917 4.99941Z" fill="white"/>
</svg>
