<svg width="6" height="6" viewBox="0 0 6 6" fill="none" xmlns="http://www.w3.org/2000/svg">
<path d="M5 0H1C0.734784 0 0.48043 0.105357 0.292893 0.292893C0.105357 0.48043 0 0.734784 0 1L0 4C0 4.26522 0.105357 4.51957 0.292893 4.70711C0.48043 4.89464 0.734784 5 1 5H1.725L2.83775 5.94075C2.88289 5.97895 2.94011 5.99992 2.99925 5.99992C3.05839 5.99992 3.11561 5.97895 3.16075 5.94075L4.275 5H5C5.26522 5 5.51957 4.89464 5.70711 4.70711C5.89464 4.51957 6 4.26522 6 4V1C6 0.734784 5.89464 0.48043 5.70711 0.292893C5.51957 0.105357 5.26522 0 5 0V0ZM1.75 1.25H3C3.0663 1.25 3.12989 1.27634 3.17678 1.32322C3.22366 1.37011 3.25 1.4337 3.25 1.5C3.25 1.5663 3.22366 1.62989 3.17678 1.67678C3.12989 1.72366 3.0663 1.75 3 1.75H1.75C1.6837 1.75 1.62011 1.72366 1.57322 1.67678C1.52634 1.62989 1.5 1.5663 1.5 1.5C1.5 1.4337 1.52634 1.37011 1.57322 1.32322C1.62011 1.27634 1.6837 1.25 1.75 1.25ZM4.25 3.75H1.75C1.6837 3.75 1.62011 3.72366 1.57322 3.67678C1.52634 3.62989 1.5 3.5663 1.5 3.5C1.5 3.4337 1.52634 3.37011 1.57322 3.32322C1.62011 3.27634 1.6837 3.25 1.75 3.25H4.25C4.3163 3.25 4.37989 3.27634 4.42678 3.32322C4.47366 3.37011 4.5 3.4337 4.5 3.5C4.5 3.5663 4.47366 3.62989 4.42678 3.67678C4.37989 3.72366 4.3163 3.75 4.25 3.75ZM4.25 2.75H1.75C1.6837 2.75 1.62011 2.72366 1.57322 2.67678C1.52634 2.62989 1.5 2.5663 1.5 2.5C1.5 2.4337 1.52634 2.37011 1.57322 2.32322C1.62011 2.27634 1.6837 2.25 1.75 2.25H4.25C4.3163 2.25 4.37989 2.27634 4.42678 2.32322C4.47366 2.37011 4.5 2.4337 4.5 2.5C4.5 2.5663 4.47366 2.62989 4.42678 2.67678C4.37989 2.72366 4.3163 2.75 4.25 2.75Z" fill="#5A5A5B"/>
</svg>
