<svg width="11" height="11" viewBox="0 0 11 11" fill="none" xmlns="http://www.w3.org/2000/svg">
<path d="M9.66211 5.5C9.66199 5.24712 9.63877 4.99477 9.59274 4.74604L11 3.94167L9.61263 1.55833L8.20491 2.36454C7.81624 2.03497 7.36959 1.77922 6.88737 1.61013V0H4.11263V1.61013C3.63041 1.77922 3.18376 2.03497 2.79509 2.36454L1.38737 1.55833L0 3.94167L1.40726 4.74604C1.31482 5.24451 1.31482 5.75549 1.40726 6.25396L0 7.05833L1.38737 9.44167L2.79509 8.63592C3.1838 8.96533 3.63044 9.22092 4.11263 9.38988V11H6.88737V9.38988C7.36959 9.22078 7.81624 8.96503 8.20491 8.63546L9.61263 9.44167L11 7.05833L9.59274 6.25396C9.63877 6.00523 9.66199 5.75288 9.66211 5.5ZM6.88737 5.5C6.88737 5.77195 6.806 6.03779 6.65356 6.26391C6.50111 6.49003 6.28443 6.66626 6.03092 6.77033C5.77741 6.8744 5.49846 6.90163 5.22934 6.84858C4.96021 6.79553 4.71301 6.66457 4.51898 6.47227C4.32495 6.27997 4.19282 6.03497 4.13929 5.76825C4.08575 5.50153 4.11323 5.22506 4.21824 4.97381C4.32324 4.72256 4.50107 4.50782 4.72922 4.35673C4.95737 4.20564 5.2256 4.125 5.5 4.125C5.86795 4.125 6.22084 4.26987 6.48102 4.52773C6.7412 4.78559 6.88737 5.13533 6.88737 5.5Z" fill="white"/>
</svg>
