<svg width="11" height="11" viewBox="0 0 11 11" fill="none" xmlns="http://www.w3.org/2000/svg">
<g clip-path="url(#clip0_3_268)">
<path d="M4.125 5.5C5.64378 5.5 6.875 4.26878 6.875 2.75C6.875 1.23122 5.64378 0 4.125 0C2.60622 0 1.375 1.23122 1.375 2.75C1.375 4.26878 2.60622 5.5 4.125 5.5Z" fill="#C4C4C4"/>
<path d="M5.97804 6.41666H2.27196C1.66962 6.41738 1.09216 6.65698 0.666245 7.0829C0.240328 7.50882 0.000727754 8.08628 0 8.68862L0 11H8.25V8.68862C8.24927 8.08628 8.00967 7.50882 7.58375 7.0829C7.15783 6.65698 6.58038 6.41738 5.97804 6.41666Z" fill="#C4C4C4"/>
<path d="M10.0833 3.60938C9.82825 3.62208 9.5886 3.73531 9.4168 3.92428C9.24501 4.11325 9.15507 4.36258 9.16666 4.61771C9.17825 4.36258 9.0883 4.11325 8.91651 3.92428C8.74472 3.73531 8.50507 3.62208 8.24999 3.60938C7.99492 3.62208 7.75527 3.73531 7.58348 3.92428C7.41169 4.11325 7.32174 4.36258 7.33333 4.61771C7.33333 5.67188 9.16666 6.97033 9.16666 6.97033C9.16666 6.97033 11 5.67371 11 4.61771C11.0116 4.36258 10.9216 4.11325 10.7498 3.92428C10.578 3.73531 10.3384 3.62208 10.0833 3.60938Z" fill="#C4C4C4"/>
</g>
<defs>
<clipPath id="clip0_3_268">
<rect width="11" height="11" fill="white"/>
</clipPath>
</defs>
</svg>
