<svg width="11" height="11" viewBox="0 0 11 11" fill="none" xmlns="http://www.w3.org/2000/svg">
<path d="M1.36188 4.89687C1.69378 2.6414 3.79125 1.08205 6.04672 1.41395C6.81624 1.52718 7.5381 1.85553 8.12916 2.36116L7.59708 2.89324C7.41875 3.07161 7.41879 3.3608 7.59719 3.53914C7.6828 3.62473 7.79893 3.67284 7.91999 3.67286H10.0145C10.2668 3.67286 10.4712 3.46838 10.4712 3.21615V1.12161C10.4712 0.869371 10.2667 0.664938 10.0144 0.664981C9.89335 0.665002 9.77723 0.713108 9.69162 0.7987L9.09784 1.39243C6.83364 -0.625888 3.36196 -0.426571 1.34364 1.83763C0.628605 2.63975 0.164589 3.63402 0.0090755 4.69727C-0.0522395 5.07422 0.203618 5.4295 0.580542 5.49081C0.614497 5.49634 0.648794 5.49931 0.683198 5.49974C1.02805 5.49602 1.31752 5.23887 1.36188 4.89687Z" fill="#EC1B90"/>
<path d="M10.2113 5.49974C9.86648 5.50347 9.57701 5.76061 9.53266 6.10261C9.20075 8.35808 7.10329 9.91744 4.84782 9.58556C4.0783 9.47233 3.35644 9.14398 2.76538 8.63834L3.29746 8.10627C3.47579 7.92789 3.47575 7.6387 3.29735 7.46036C3.21174 7.37477 3.09561 7.32667 2.97455 7.32665H0.880055C0.627816 7.32665 0.42334 7.53112 0.42334 7.78336V9.8779C0.423404 10.1301 0.627923 10.3346 0.880162 10.3345C1.00123 10.3345 1.11735 10.2864 1.20296 10.2008L1.7967 9.60707C4.06036 11.6256 7.53178 11.4269 9.55034 9.16323C10.2658 8.36093 10.73 7.36632 10.8855 6.30268C10.947 5.92578 10.6914 5.57033 10.3145 5.50875C10.2804 5.50317 10.2459 5.50015 10.2113 5.49974Z" fill="#EC1B90"/>
</svg>
