<svg width="11" height="11" viewBox="0 0 11 11" fill="none" xmlns="http://www.w3.org/2000/svg">
<path d="M1.72192e-05 5.49358C-0.00466065 6.66893 0.944368 7.62553 2.11974 7.63021C2.66104 7.63235 3.18284 7.42816 3.57889 7.05916L6.75033 8.49109C6.7283 8.60966 6.71622 8.72985 6.71418 8.85045C6.71044 10.0339 7.66677 10.9963 8.85023 11.0001C10.0337 11.0038 10.9961 10.0475 10.9998 8.86401C11.0036 7.68055 10.0472 6.71815 8.86379 6.7144C8.15672 6.71217 7.49407 7.05886 7.09276 7.641L4.11311 6.2956C4.32475 5.78455 4.32557 5.21053 4.11541 4.69888L7.09094 3.34661C7.76097 4.31568 9.08972 4.55807 10.0588 3.88804C11.0279 3.21801 11.2702 1.88928 10.6002 0.920208C9.93017 -0.0488632 8.60142 -0.291254 7.63235 0.378776C7.05523 0.777811 6.71124 1.4351 6.71233 2.13673C6.71426 2.2575 6.72652 2.37786 6.74896 2.49654L3.58575 3.93394C2.72874 3.12919 1.38162 3.17157 0.576876 4.02859C0.204427 4.42526 -0.00199984 4.94947 1.72192e-05 5.49358Z" fill="#F47907"/>
</svg>
