<svg width="12" height="12" viewBox="0 0 12 12" fill="none" xmlns="http://www.w3.org/2000/svg">
<path d="M5.75 8C5.55109 8 5.36032 8.07902 5.21967 8.21967C5.07902 8.36032 5 8.55109 5 8.75V9.15C5 9.50804 4.85777 9.85142 4.60459 10.1046C4.35142 10.3578 4.00804 10.5 3.65 10.5H2.85C2.49196 10.5 2.14858 10.3578 1.89541 10.1046C1.64223 9.85142 1.5 9.50804 1.5 9.15V2.85C1.5 2.49196 1.64223 2.14858 1.89541 1.89541C2.14858 1.64223 2.49196 1.5 2.85 1.5H3.65C4.00804 1.5 4.35142 1.64223 4.60459 1.89541C4.85777 2.14858 5 2.49196 5 2.85V3.25C5 3.44891 5.07902 3.63968 5.21967 3.78033C5.36032 3.92098 5.55109 4 5.75 4C5.94891 4 6.13968 3.92098 6.28033 3.78033C6.42098 3.63968 6.5 3.44891 6.5 3.25V2.85C6.49921 2.09438 6.19868 1.36993 5.66438 0.835623C5.13007 0.301316 4.40562 0.00079414 3.65 0L2.85 0C2.09438 0.00079414 1.36993 0.301316 0.835623 0.835623C0.301316 1.36993 0.00079414 2.09438 0 2.85L0 9.15C0.00079414 9.90562 0.301316 10.6301 0.835623 11.1644C1.36993 11.6987 2.09438 11.9992 2.85 12H3.65C4.40562 11.9992 5.13007 11.6987 5.66438 11.1644C6.19868 10.6301 6.49921 9.90562 6.5 9.15V8.75C6.5 8.55109 6.42098 8.36032 6.28033 8.21967C6.13968 8.07902 5.94891 8 5.75 8Z" fill="white"/>
<path d="M11.2805 4.7625L8.9875 2.4695C8.91784 2.39987 8.83514 2.34464 8.74413 2.30697C8.65311 2.26929 8.55557 2.24992 8.45708 2.24994C8.35858 2.24996 8.26104 2.26939 8.17005 2.3071C8.07906 2.34482 7.99639 2.40009 7.92675 2.46975C7.78612 2.61045 7.70714 2.80125 7.70719 3.00018C7.70721 3.09868 7.72664 3.19621 7.76435 3.2872C7.80207 3.3782 7.85734 3.46087 7.927 3.5305L9.6325 5.236L3.5 5.25C3.30109 5.25 3.11032 5.32902 2.96967 5.46967C2.82902 5.61032 2.75 5.80109 2.75 6C2.75 6.19892 2.82902 6.38968 2.96967 6.53033C3.11032 6.67099 3.30109 6.75 3.5 6.75L9.659 6.736L7.9255 8.4695C7.7848 8.61013 7.70574 8.8009 7.70569 8.99983C7.70564 9.19876 7.78462 9.38956 7.92525 9.53025C8.06588 9.67095 8.25665 9.75002 8.45557 9.75007C8.6545 9.75011 8.8453 9.67113 8.986 9.5305L11.279 7.2375C11.6068 6.90918 11.7911 6.46427 11.7913 6.00031C11.7916 5.53636 11.6079 5.09122 11.2805 4.7625Z" fill="white"/>
</svg>
