<svg width="8" height="8" viewBox="0 0 8 8" fill="none" xmlns="http://www.w3.org/2000/svg">
<path d="M7.58405 2.67001C7.23798 2.24118 6.71613 1.9924 6.16506 1.99356H5.48828L5.51817 1.81821C5.64002 1.1039 5.15973 0.426075 4.44542 0.304232C4.36683 0.290826 4.28717 0.284607 4.20745 0.285669C3.70658 0.28306 3.24708 0.563185 3.01994 1.00961L2.51783 1.99356H1.82644C0.818187 1.99467 0.00109375 2.81174 0 3.82001V5.48041C0.00109375 6.48868 0.818187 7.30576 1.82644 7.30685H5.81406C6.67591 7.30372 7.41942 6.70116 7.60098 5.85865L7.952 4.19824C8.06717 3.6594 7.93186 3.09738 7.58405 2.67001ZM0.996234 5.4804V3.82001C0.996234 3.36151 1.36792 2.98981 1.82644 2.98981H2.32456V6.3106H1.82644C1.36794 6.3106 0.996234 5.93891 0.996234 5.4804ZM6.97733 3.99202L6.62598 5.65243C6.54359 6.03533 6.20572 6.30922 5.81405 6.31062H3.3208V2.61156L3.90725 1.46223C3.96941 1.34589 4.09297 1.27572 4.22472 1.28192C4.39931 1.28203 4.54077 1.42367 4.54066 1.59826C4.54064 1.61589 4.53916 1.63348 4.53622 1.65086L4.30808 2.98981H6.16506C6.62356 2.98976 6.9953 3.36142 6.99534 3.81992C6.99536 3.87776 6.98931 3.93543 6.97733 3.99202Z" fill="white"/>
</svg>
