<svg width="26" height="26" viewBox="0 0 26 26" fill="none" xmlns="http://www.w3.org/2000/svg">
<path d="M19.025 8.3538V6.94165C19.025 3.1079 15.9171 0 12.0833 0C8.24954 0 5.14169 3.1079 5.14169 6.94165V8.3538C3.33689 9.14148 2.16929 10.9225 2.16669 12.8917V18.8417C2.16994 21.5787 4.38794 23.7968 7.12499 23.8H17.0416C19.7787 23.7968 21.9967 21.5787 22 18.8417V12.8917C21.9974 10.9225 20.8298 9.14148 19.025 8.3538ZM13.075 16.8584C13.075 17.406 12.631 17.85 12.0833 17.85C11.5357 17.85 11.0917 17.406 11.0917 16.8584V14.875C11.0917 14.3273 11.5357 13.8834 12.0833 13.8834C12.631 13.8834 13.075 14.3273 13.075 14.875V16.8584ZM17.0417 7.93335H7.12499V6.9417C7.12499 4.2033 9.3449 1.98335 12.0833 1.98335C14.8218 1.98335 17.0417 4.20326 17.0417 6.9417V7.93335Z" fill="white"/>
</svg>
