<svg width="5" height="5" viewBox="0 0 5 5" fill="none" xmlns="http://www.w3.org/2000/svg">
<g clip-path="url(#clip0_3_126)">
<path d="M3.69189 0.625L3.39751 0.243333C3.33887 0.167876 3.26383 0.106753 3.17807 0.0645946C3.09231 0.0224357 2.99807 0.000346467 2.90251 0L2.09751 0C2.00195 0.000346467 1.90772 0.0224357 1.82196 0.0645946C1.73619 0.106753 1.66115 0.167876 1.60251 0.243333L1.30814 0.625H3.69189Z" fill="#5A5A5B"/>
<path d="M2.49999 3.75C2.96023 3.75 3.33333 3.3769 3.33333 2.91667C3.33333 2.45643 2.96023 2.08333 2.49999 2.08333C2.03975 2.08333 1.66666 2.45643 1.66666 2.91667C1.66666 3.3769 2.03975 3.75 2.49999 3.75Z" fill="#5A5A5B"/>
<path d="M3.95833 1.04167H1.04167C0.765501 1.042 0.500741 1.15185 0.305462 1.34713C0.110184 1.54241 0.000330803 1.80717 0 2.08333L0 3.95834C0.000330803 4.2345 0.110184 4.49926 0.305462 4.69454C0.500741 4.88982 0.765501 4.99967 1.04167 5H3.95833C4.2345 4.99967 4.49926 4.88982 4.69453 4.69454C4.88981 4.49926 4.99967 4.2345 5 3.95834V2.08333C4.99967 1.80717 4.88981 1.54241 4.69453 1.34713C4.49926 1.15185 4.2345 1.042 3.95833 1.04167ZM2.5 4.16667C2.25277 4.16667 2.0111 4.09336 1.80554 3.95601C1.59997 3.81865 1.43976 3.62343 1.34515 3.39502C1.25054 3.16662 1.22579 2.91528 1.27402 2.67281C1.32225 2.43033 1.4413 2.2076 1.61612 2.03278C1.79093 1.85797 2.01366 1.73892 2.25614 1.69069C2.49861 1.64245 2.74994 1.66721 2.97835 1.76182C3.20676 1.85643 3.40198 2.01664 3.53933 2.22221C3.67669 2.42777 3.75 2.66944 3.75 2.91667C3.74967 3.24809 3.61786 3.56584 3.38352 3.80019C3.14917 4.03454 2.83142 4.16634 2.5 4.16667Z" fill="#5A5A5B"/>
</g>
<defs>
<clipPath id="clip0_3_126">
<rect width="5" height="5" fill="white"/>
</clipPath>
</defs>
</svg>
