<svg width="10" height="10" viewBox="0 0 10 10" fill="none" xmlns="http://www.w3.org/2000/svg">
<path d="M9.58313 0.416536C9.23857 0.0671723 8.73614 -0.0760687 8.25916 0.0390904L1.89008 1.37765C0.680571 1.55662 -0.154835 2.68222 0.0241432 3.89172C0.093723 4.36194 0.312812 4.79729 0.648994 5.13335L1.3318 5.81659C1.36377 5.84813 1.38164 5.89125 1.38139 5.93616V7.19598C1.38231 7.97974 2.01743 8.61486 2.80118 8.61578H4.061C4.10597 8.61578 4.14913 8.63361 4.18098 8.66536L4.86379 9.34817C5.27666 9.76377 5.83816 9.99767 6.42398 9.99808C6.6658 9.99788 6.906 9.95834 7.13512 9.881C7.92585 9.6184 8.50043 8.93173 8.6195 8.1071L9.95805 1.75802C10.0783 1.27602 9.93585 0.766329 9.58313 0.416536ZM1.30058 3.26028C1.4138 2.91047 1.71935 2.65787 2.08422 2.61247C2.09894 2.61051 2.11351 2.60801 2.12796 2.60497L7.67799 1.43848L2.63123 6.48232V5.93615C2.63214 5.55936 2.48209 5.19791 2.21463 4.93254L1.53264 4.24973C1.26996 3.99281 1.1795 3.60721 1.30058 3.26028ZM7.39219 7.87129C7.38886 7.88588 7.38679 7.90045 7.3847 7.91504C7.31234 8.44275 6.82591 8.8119 6.29819 8.73955C6.08971 8.71096 5.89628 8.61498 5.74743 8.46621L5.06503 7.78381C4.79952 7.51627 4.43794 7.36623 4.06102 7.36721H3.51485L8.56036 2.32044L7.39219 7.87129Z" fill="white"/>
</svg>
