<svg width="11" height="11" viewBox="0 0 11 11" fill="none" xmlns="http://www.w3.org/2000/svg">
<path d="M4.77095 8.97708C4.0431 9.73184 2.85775 9.80146 2.04657 9.13706C1.56346 8.71879 1.31669 8.08987 1.38644 7.45467C1.44685 6.98635 1.66573 6.5528 2.00668 6.22612L3.3251 4.90679C3.59354 4.63827 3.59354 4.20301 3.3251 3.93449C3.05658 3.66605 2.62132 3.66605 2.3528 3.93449L1.06235 5.2254C0.47413 5.79263 0.103176 6.54797 0.013935 7.36023C-0.152751 9.18971 1.1952 10.8079 3.02467 10.9746C4.00715 11.0641 4.97868 10.7129 5.67677 10.0159L7.0557 8.63739C7.32414 8.36887 7.32414 7.9336 7.0557 7.66509C6.78719 7.39665 6.35192 7.39665 6.0834 7.66509L4.77095 8.97708Z" fill="#EC1B90"/>
<path d="M9.69894 0.672353C8.32998 -0.333432 6.429 -0.17575 5.24448 1.04185L3.94669 2.34009C3.67825 2.60861 3.67825 3.04388 3.94669 3.31239C4.21521 3.58083 4.65047 3.58083 4.91899 3.31239L6.23741 1.99535C6.94937 1.25901 8.10127 1.17606 8.91137 1.80281C9.74518 2.48653 9.86687 3.71672 9.18315 4.55053C9.14314 4.59933 9.10079 4.64616 9.05622 4.69085L7.67729 6.06978C7.40885 6.3383 7.40885 6.77357 7.67729 7.04209C7.94581 7.31052 8.38108 7.31052 8.64959 7.04209L10.0285 5.66316C11.3267 4.36084 11.3234 2.25272 10.021 0.954539C9.91984 0.853673 9.81225 0.759424 9.69894 0.672353Z" fill="#EC1B90"/>
<path d="M3.94671 6.07101L6.08319 3.93453C6.35173 3.66599 6.78711 3.66599 7.05565 3.93453C7.32419 4.20307 7.32419 4.63844 7.05565 4.90698L4.91916 7.04346C4.65062 7.312 4.21525 7.312 3.94671 7.04346C3.67817 6.77492 3.67817 6.33955 3.94671 6.07101Z" fill="#EC1B90"/>
</svg>
